# xmcd
#
# Track frame offsets:
#  150
#  24702
#  43401
#  60867
#  80403
#  96134
#  116631
#  133756
#  153024
#  167460
#
# Disc length: 2470 seconds
#
# Revision: 0
# Processed by: cddbd v1.5.1PL2 Copyright (c) Steve Scherf et al.
# Submitted via: Collectorz.com_Music_Collector 6.9
#
DISCID=7609a40a
DTITLE=Lou DeAdder - LouD
DYEAR=2005
DGENRE=Blues
TTITLE0=Beer Drinkin' Mama
TTITLE1=You Said
TTITLE2=Tell Me About Your Problem
TTITLE3=Struttin'
TTITLE4=Dibs On You
TTITLE5=My Baby Blue
TTITLE6=Goin' Fishin'
TTITLE7=Burn Me Down
TTITLE8=Space Cowboy
TTITLE9=Ten Minutes
EXTD=
EXTT0=
EXTT1=
EXTT2=
EXTT3=
EXTT4=
EXTT5=
EXTT6=
EXTT7=
EXTT8=
EXTT9=
PLAYORDER=
